<?xml version="1.0" encoding="iso-8859-1"?>
<!-- Generator: Adobe Illustrator 21.0.2, SVG Export Plug-In . SVG Version: 6.00 Build 0)  -->
<svg xmlns="http://www.w3.org/2000/svg" xmlns:xlink="http://www.w3.org/1999/xlink" version="1.1" id="Layer_1" x="0px" y="0px" viewBox="0 0 40 40" style="enable-background:new 0 0 40 40;" xml:space="preserve">
<path style="fill:#DFF0FE;" d="M39,20c0,10.578-8.618,19-19,19C9.619,39,1,30.578,1,20S9.422,1,20,1S39,9.422,39,20z"/>
<g>
	<path style="fill:#B6DCFE;" d="M27.124,26.951c0.432,0.215,0.864,0.215,1.081,0.647c0.647,0.649,0.647,1.728,0.864,2.376   c0.215,0.864,0.432,1.727,0.864,2.591c0.216,1.081,0.648,2.16,0.864,3.023c0.141-0.11,0.306-0.213,0.463-0.318   C35.927,31.822,39,26.302,39,20c0-5.597-2.373-10.575-6.161-14.037c-0.459-0.151-0.93-0.165-1.396,0.042   c-0.648,0.217-1.079,1.081-1.511,1.512c-0.432,0.648-0.864,1.295-1.295,1.943c-0.217,0.216-0.432,0.648-0.217,0.864   c0,0.216,0.217,0.216,0.432,0.216c0.432,0.217,0.649,0.217,1.081,0.432c0.216,0,0.432,0.217,0.216,0.432c0,0,0,0.217-0.216,0.217   c-1.081,1.08-2.159,1.943-3.239,3.022c-0.216,0.216-0.432,0.648-0.432,0.864c0,0.216,0.216,0.216,0.216,0.432   c0,0.217-0.216,0.217-0.432,0.432c-0.432,0.217-0.864,0.432-1.08,0.649c-0.216,0.432,0,1.08-0.216,1.511   c-0.216,1.079-0.865,1.943-1.297,3.023c-0.432,0.647-0.647,1.295-1.078,1.943c0,0.864-0.217,1.511,0.215,2.159   C23.67,27.166,25.612,26.302,27.124,26.951z"/>
</g>
<g>
	<path style="fill:#B6DCFE;" d="M26.725,2.21C24.638,1.432,22.375,1,20,1c-0.391,0-0.776,0.019-1.161,0.041   c-0.27,0.419-0.485,0.832-0.566,1.078c-0.216,1.079,0.648,0.864,1.511,1.079c0,0,0.216,1.727,0.216,1.943   c0.216,1.081-0.432,1.727-0.432,2.807c0,0.648,0,1.727,0.432,2.159h0.216c0.216,0,0.432-0.216,0.864-0.432   c0.648-0.432,1.296-1.079,1.943-1.511c0.649-0.432,1.296-1.079,1.728-1.511c0.648-0.432,1.079-1.295,1.295-1.944   c0.216-0.432,0.956-1.704,0.739-2.351C26.769,2.323,26.746,2.263,26.725,2.21z"/>
</g>
<g>
	<path style="fill:#B6DCFE;" d="M1.432,20.902c0.648,1.295,1.943,2.592,3.239,3.454c0.864,0.648,2.591,0.648,3.454,1.727   c0.648,0.865,0.432,1.943,0.432,3.023c0,1.295,0.864,2.375,1.295,3.453c0.216,0.649,0.432,1.512,0.648,2.16   c0,0.216,0.216,1.511,0.216,1.727c0.069,0.035,0.126,0.114,0.177,0.212c1.153,0.632,2.378,1.14,3.657,1.524   c0.016,0.001,0.037-0.012,0.053-0.008c0.216,0,1.08-1.296,1.08-1.512c0.648-0.648,1.079-1.511,1.727-1.943   c0.432-0.216,0.864-0.432,1.295-0.865c0.432-0.432,0.648-1.295,0.864-1.943c0.216-0.431,0.432-1.294,0.216-1.942   c-0.137-0.41-0.216-0.648-0.648-0.864c-1.295-0.432-2.591-0.432-3.67-1.512c-0.216-0.432-0.216-0.864-0.432-1.295   c-0.432-0.432-1.511-0.648-2.159-0.864h-2.807H8.557c-0.648-0.216-1.079-1.08-1.511-1.727c0-0.216,0-0.649-0.432-0.649   c-0.432-0.215-0.864,0.217-1.295,0c-0.216-0.215-0.216-0.432-0.216-0.647c0-0.649,0.432-1.296,0.864-1.728   C6.614,20.253,7.262,20.9,7.909,20.9c0.216,0,0.216,0,0.432,0.216c0.648,0.216,0.864,1.079,0.864,1.728v0.432   c0,0.216,0.216,0.216,0.432,0.216c0.216-1.079,0.216-2.16,0.432-3.239c0-1.295,1.295-2.592,2.375-3.023   c0.432-0.215,0.648,0.217,1.079,0c1.295-0.432,4.534-1.727,3.886-3.453c-0.432-1.512-1.727-3.022-3.454-2.807   c-0.432,0.217-0.648,0.432-1.079,0.649c-0.648,0.432-1.943,1.727-2.591,1.727c-1.079-0.216-1.079-1.727-0.864-2.376   c0.216-0.864,2.159-3.669,3.454-3.238c0.216,0.216,0.648,0.648,0.864,0.864c0.432,0.216,1.08,0.216,1.727,0.216   c0.216,0,0.432,0,0.648-0.216c0.216-0.216,0.216-0.216,0.216-0.432c0-0.648-0.648-1.296-1.079-1.728   c-0.432-0.432-1.08-0.864-1.727-1.078c-1.38-0.415-4.295,0.076-6.672,0.878C3.24,9.685,1,14.553,1,20   c0,0.091,0.009,0.18,0.01,0.271C1.164,20.489,1.312,20.702,1.432,20.902z"/>
</g>
<g>
	<path style="fill:#4788C7;" d="M20,2c10.093,0,18,7.907,18,18c0,9.925-8.075,18-18,18S2,29.925,2,20C2,9.907,9.907,2,20,2 M20,1   C9.422,1,1,9.422,1,20s8.619,19,19,19c10.382,0,19-8.422,19-19S30.578,1,20,1L20,1z"/>
</g>
<g>
	<path style="fill:#4788C7;" d="M19.996,2c1.358,0,4,6.353,4,18s-2.642,18-4,18s-4-6.353-4-18S18.638,2,19.996,2 M19.996,1   c-2.761,0-5,8.507-5,19s2.239,19,5,19c2.761,0,5-8.507,5-19S22.757,1,19.996,1L19.996,1z"/>
</g>
<g>
	<path style="fill:#4788C7;" d="M19.998,2c6.616,0,11.998,8.075,11.998,18s-5.382,18-11.998,18S8,29.925,8,20S13.382,2,19.998,2    M19.998,1C12.819,1,7,9.507,7,20s5.819,19,12.998,19c7.178,0,12.998-8.507,12.998-19S27.176,1,19.998,1L19.998,1z"/>
</g>
</svg>
